<?xml version="1.0" encoding="utf-8"?>
<!-- Generated by IcoMoon.io -->
<!DOCTYPE svg PUBLIC "-//W3C//DTD SVG 1.1//EN" "http://www.w3.org/Graphics/SVG/1.1/DTD/svg11.dtd">
<svg version="1.1" xmlns="http://www.w3.org/2000/svg" xmlns:xlink="http://www.w3.org/1999/xlink" width="32" height="32" viewBox="0 0 32 32">
<path fill="#444444" d="M15 0c-8.284 0-15 2.239-15 5 0 0.195 0.035 0.388 0.1 0.577l3.886 22.423c0 2.209 4.928 4 11.007 4s11.007-1.791 11.007-4l3.899-22.421c0.066-0.19 0.101-0.383 0.101-0.579 0-2.761-6.716-5-15-5zM27.151 8.25h-0.752c0.285-0.111 0.557-0.226 0.812-0.346l-0.060 0.346zM22.984 25.25c-0.48-0.184-1.007-0.352-1.575-0.5h2.872l-0.087 0.5h-1.21zM5.793 25.25l-0.087-0.5h2.871c-0.568 0.148-1.095 0.316-1.575 0.5h-1.209zM18.828 24.25c-1.194-0.161-2.486-0.25-3.835-0.25s-2.641 0.089-3.835 0.25h-5.538l-0.087-0.5h18.922l-0.087 0.5h-5.54zM5.446 23.25l-0.087-0.5h19.27l-0.087 0.5h-19.096zM5.273 22.25l-0.087-0.5h19.617l-0.087 0.5h-19.443zM5.1 21.25l-0.087-0.5h19.964l-0.087 0.5h-19.791zM4.926 20.25l-0.087-0.5h20.311l-0.087 0.5h-20.138zM4.753 19.25l-0.087-0.5h20.659l-0.087 0.5h-20.485zM4.58 18.25l-0.087-0.5h21.006l-0.087 0.5h-20.832zM4.406 17.25l-0.087-0.5h21.353l-0.087 0.5h-21.179zM4.233 16.25l-0.087-0.5h21.7l-0.087 0.5h-21.527zM4.060 15.25l-0.087-0.5h22.047l-0.087 0.5h-21.874zM3.887 14.25l-0.087-0.5h22.395l-0.087 0.5h-22.221zM3.713 13.25l-0.087-0.5h22.742l-0.087 0.5h-22.568zM3.54 12.25l-0.087-0.5h23.089l-0.087 0.5h-22.915zM3.367 11.25l-0.087-0.5h23.436l-0.087 0.5h-23.263zM3.193 10.25l-0.087-0.5h7.202c1.476 0.162 3.053 0.25 4.691 0.25s3.215-0.088 4.691-0.25h7.199l-0.087 0.5h-23.61zM2.787 7.903c0.256 0.12 0.528 0.235 0.815 0.347h-0.754l-0.060-0.347zM5.080 8.75c0.628 0.185 1.303 0.352 2.018 0.5h-4.078l-0.087-0.5h2.147zM22.902 9.25c0.715-0.148 1.39-0.315 2.018-0.5h2.144l-0.087 0.5h-4.075zM5.889 3.358c2.514-0.714 5.75-1.108 9.111-1.108s6.598 0.393 9.111 1.108c2.155 0.613 3.168 1.29 3.526 1.642-0.358 0.352-1.371 1.030-3.526 1.642-2.514 0.714-5.75 1.108-9.111 1.108s-6.598-0.393-9.111-1.108c-2.155-0.612-3.168-1.29-3.526-1.642 0.358-0.352 1.371-1.030 3.526-1.642z"></path>
</svg>
