<?xml version="1.0" encoding="utf-8"?>
<!-- Generated by IcoMoon.io -->
<!DOCTYPE svg PUBLIC "-//W3C//DTD SVG 1.1//EN" "http://www.w3.org/Graphics/SVG/1.1/DTD/svg11.dtd">
<svg version="1.1" xmlns="http://www.w3.org/2000/svg" xmlns:xlink="http://www.w3.org/1999/xlink" width="32" height="32" viewBox="0 0 32 32">
<path d="M20 3c4.246 0.899 7 5.707 7 10 0 4.812-3.986 8.491-9 8.738v-5.738l-7 8 7 8v-5.782c6.712-0.432 12-5.428 12-11.218 0-5.327-4.057-10.987-10-12z" fill="#444444"></path>
<path d="M12 27.355c-0.331 0.013-0.664 0.020-1 0.020-2.484 0-4.858-0.363-6.684-1.021-1.525-0.55-2.148-1.125-2.316-1.354v-5.187c1.81 1.169 4.694 1.969 8 2.104v-2.625c-2.116-0.084-4.105-0.431-5.684-1-1.525-0.55-2.148-1.125-2.316-1.354v-5.062c1.991 1.285 5.279 2.125 9 2.125s7.009-0.84 9-2.125v6.125h2v-9c0-2.761-4.925-5-11-5s-11 2.239-11 5v16c0 2.761 4.925 5 11 5 0.337 0 0.671-0.007 1-0.021v-2.625zM4.804 7.646c1.692-0.658 3.893-1.021 6.196-1.021s4.503 0.362 6.196 1.021c1.414 0.55 1.991 1.125 2.147 1.354-0.156 0.23-0.733 0.805-2.147 1.354-1.692 0.658-3.893 1.021-6.196 1.021s-4.503-0.363-6.196-1.021c-1.414-0.55-1.991-1.125-2.147-1.354 0.156-0.23 0.733-0.805 2.147-1.354z" fill="#444444"></path>
</svg>
