<?xml version="1.0" encoding="utf-8"?>
<!-- Generated by IcoMoon.io -->
<!DOCTYPE svg PUBLIC "-//W3C//DTD SVG 1.1//EN" "http://www.w3.org/Graphics/SVG/1.1/DTD/svg11.dtd">
<svg version="1.1" xmlns="http://www.w3.org/2000/svg" xmlns:xlink="http://www.w3.org/1999/xlink" width="32" height="32" viewBox="0 0 32 32">
<path fill="#444444" d="M22 8h7.254c-0.157-0.252-0.345-0.531-0.572-0.841-0.694-0.947-1.662-2.053-2.724-3.116s-2.169-2.030-3.116-2.724c-0.31-0.227-0.589-0.416-0.841-0.572v7.254z"></path>
<path fill="#444444" d="M20 9v-9h-15.5c-1.378 0-2.5 1.121-2.5 2.5v27c0 1.378 1.121 2.5 2.5 2.5h23c1.378 0 2.5-1.122 2.5-2.5v-19.5h-9c-0.552 0-1-0.448-1-1z"></path>
</svg>
