<?xml version="1.0" encoding="utf-8"?>
<!-- Generated by IcoMoon.io -->
<!DOCTYPE svg PUBLIC "-//W3C//DTD SVG 1.1//EN" "http://www.w3.org/Graphics/SVG/1.1/DTD/svg11.dtd">
<svg version="1.1" xmlns="http://www.w3.org/2000/svg" xmlns:xlink="http://www.w3.org/1999/xlink" width="32" height="32" viewBox="0 0 32 32">
<path d="M10.227 14l7.994-13.846c-0.726-0.101-1.467-0.154-2.221-0.154-4.366 0-8.323 1.749-11.209 4.585l5.436 9.415z" fill="#444444"></path>
<path d="M14.845 10h15.99c-1.849-4.568-5.746-8.087-10.552-9.419l-5.438 9.419z" fill="#444444"></path>
<path d="M11.381 20l-7.994-13.845c-2.122 2.715-3.388 6.132-3.388 9.845 0 1.381 0.175 2.721 0.504 4h10.877z" fill="#444444"></path>
<path d="M20.619 12l7.994 13.846c2.122-2.715 3.387-6.132 3.387-9.846 0-1.381-0.175-2.721-0.504-4h-10.877z" fill="#444444"></path>
<path d="M17.155 22h-15.99c1.849 4.568 5.746 8.087 10.552 9.419l5.438-9.419z" fill="#444444"></path>
<path d="M21.773 18l-7.994 13.846c0.726 0.101 1.467 0.154 2.22 0.154 4.366 0 8.323-1.749 11.21-4.585l-5.436-9.415z" fill="#444444"></path>
</svg>
